<svg width="385" height="199" viewBox="0 0 385 199" fill="none" xmlns="http://www.w3.org/2000/svg">
<path d="M306.839 86V40H318.339L322.839 62C325.339 62.6667 331.139 64.6 334.339 67L352.839 55L370.339 72L357.839 90.5C359.006 92.3333 361.539 97 362.339 101L383.839 106V131L363.339 135C362.673 137 360.639 142.1 357.839 146.5L370.339 165.5L352.839 183L334.339 171C333.839 171.167 330.839 172.2 322.839 175L318.339 197.5L306.839 196V151.5C350.339 151.5 349.839 86 306.839 86Z" fill="#005EA5"/>
<path d="M186.84 1C163.506 15.6667 103.073 67.0805 107.34 88.5C113.84 121.131 230.507 95.6667 296.84 80.5V68.5C235.84 80.5 37.8398 134 186.84 1Z" fill="#005EA5"/>
<path d="M296.84 140C219.84 150 -90.6602 218 74.3398 60C-76.1606 170.5 8.33936 208 296.84 171V140Z" fill="#005EA5"/>
<path d="M306.839 86V40H318.339L322.839 62C325.339 62.6667 331.139 64.6 334.339 67L352.839 55L370.339 72L357.839 90.5C359.006 92.3333 361.539 97 362.339 101L383.839 106V131L363.339 135C362.673 137 360.639 142.1 357.839 146.5L370.339 165.5L352.839 183L334.339 171C333.839 171.167 330.839 172.2 322.839 175L318.339 197.5L306.839 196V151.5C350.339 151.5 349.839 86 306.839 86Z" stroke="#166FB3"/>
<path d="M186.84 1C163.506 15.6667 103.073 67.0805 107.34 88.5C113.84 121.131 230.507 95.6667 296.84 80.5V68.5C235.84 80.5 37.8398 134 186.84 1Z" stroke="#166FB3"/>
<path d="M296.84 140C219.84 150 -90.6602 218 74.3398 60C-76.1606 170.5 8.33936 208 296.84 171V140Z" stroke="#166FB3"/>
<path d="M133.839 31.5C-3.66073 128 35.3392 167 296.839 119V96.5C110.339 134.5 14.8392 141 133.839 31.5Z" fill="#EFDD3A" stroke="#DFCE34"/>
</svg>
